<svg xmlns="http://www.w3.org/2000/svg" xmlns:xlink="http://www.w3.org/1999/xlink" xmlns:lucid="lucid" width="1760" height="1360"><g transform="translate(0 0)" lucid:page-tab-id="0_0"><path d="M0 0h1760v1360H0z" fill="#fff"/><path d="M1656 100c24.3 0 44 19.42 44 43.38 0 23.95-19.7 43.37-44 43.37h-132c-24.3 0-44-19.42-44-43.38 0-23.95 19.7-43.37 44-43.37z" stroke="#000" stroke-opacity="0" fill="#ff741d"/><use xlink:href="#a" transform="matrix(1,0,0,1,1485,105) translate(36.14074074074074 42.233333333333334)"/><use xlink:href="#b" transform="matrix(1,0,0,1,1485,105) translate(125.17037037037038 42.233333333333334)"/><path d="M453.15 78.58a8 8 0 0 1 8-8h836.75a8 8 0 0 1 8 8v59.05a8 8 0 0 1-8 8H461.15a8 8 0 0 1-8-8z" stroke="#000" stroke-opacity="0" stroke-width="2" fill="#fff" fill-opacity="0"/><use xlink:href="#c" transform="matrix(1,0,0,1,457.14655278534315,74.57761197839861) translate(325.1951851851852 43.69555555555555)"/><use xlink:href="#d" transform="matrix(1,0,0,1,457.14655278534315,74.57761197839861) translate(431.4964197530864 43.69555555555555)"/><path d="M709.44 143.2h347.9M709.47 143.2h-1.03M1057.3 143.2h1.03" stroke="#979ea8" stroke-width="2" fill="none"/><path d="M453.15 153.63a8 8 0 0 1 8-8h837.7a8 8 0 0 1 8 8V172a8 8 0 0 1-8 8h-837.7a8 8 0 0 1-8-8z" stroke="#000" stroke-opacity="0" stroke-width="2" fill="#fff" fill-opacity="0"/><use xlink:href="#e" transform="matrix(1,0,0,1,457.1465527853436,149.63266006023548) translate(280.84647119341565 17.89925925925926)"/><use xlink:href="#f" transform="matrix(1,0,0,1,457.1465527853436,149.63266006023548) translate(390.3424588477366 17.89925925925926)"/><use xlink:href="#g" transform="matrix(1,0,0,1,457.1465527853436,149.63266006023548) translate(466.7389609053498 17.89925925925926)"/><use xlink:href="#h" transform="matrix(1,0,0,1,457.1465527853436,149.63266006023548) translate(479.1884465020576 17.89925925925926)"/><use xlink:href="#i" transform="matrix(1,0,0,1,457.1465527853436,149.63266006023548) translate(512.2879320987654 17.89925925925926)"/><use xlink:href="#j" transform="matrix(1,0,0,1,457.1465527853436,149.63266006023548) translate(537.7817592592593 17.89925925925926)"/><path d="M1590 187.75V378a12 12 0 0 1-12 12h-419" stroke="#3a414a" stroke-width="2" fill="none"/><path d="M1591 187.78h-2v-1.03h2z" stroke="#3a414a" stroke-width=".05" fill="#3a414a"/><path d="M1143.74 390l14.26-4.63v9.26z" stroke="#3a414a" stroke-width="2" fill="#3a414a"/><path d="M1122 320c9.94 0 18 31.34 18 70s-8.06 70-18 70H978c-9.94 0-18-31.34-18-70s8.06-70 18-70z" stroke="#3a414a" fill="#979ea8"/><path d="M1122 460c-9.94 0-18-31.34-18-70s8.06-70 18-70" stroke="#3a414a" fill="none"/><use xlink:href="#k" transform="matrix(1,0,0,1,965,325) translate(13.644444444444439 57.53333333333333)"/><use xlink:href="#l" transform="matrix(1,0,0,1,965,325) translate(67.51851851851852 57.53333333333333)"/><use xlink:href="#m" transform="matrix(1,0,0,1,965,325) translate(44.21111111111111 79.93333333333334)"/><path d="M453.15 328a8 8 0 0 1 8-8H632a8 8 0 0 1 8 8v124a8 8 0 0 1-8 8H461.15a8 8 0 0 1-8-8z" stroke="#3a414a" fill="#979ea8"/><path d="M476.5 320v140m140.14-140v140" stroke="#3a414a" fill="none"/><use xlink:href="#n" transform="matrix(1,0,0,1,486.17456986754166,325) translate(15.440740740740736 68.73333333333333)"/><path d="M120 528a8 8 0 0 1 8-8h164a8 8 0 0 1 8 8v124a8 8 0 0 1-8 8H128a8 8 0 0 1-8-8z" stroke="#3a414a" fill="#979ea8"/><use xlink:href="#o" transform="matrix(1,0,0,1,132,532) translate(22.648148148148138 61.733333333333334)"/><use xlink:href="#p" transform="matrix(1,0,0,1,132,532) translate(108.51481481481483 61.733333333333334)"/><path d="M453.15 688a8 8 0 0 1 8-8h164a8 8 0 0 1 8 8v124a8 8 0 0 1-8 8h-164a8 8 0 0 1-8-8z" stroke="#3a414a" fill="#979ea8"/><use xlink:href="#q" transform="matrix(1,0,0,1,465.14655278534315,692) translate(31.903703703703698 61.733333333333334)"/><use xlink:href="#p" transform="matrix(1,0,0,1,465.14655278534315,692) translate(99.25925925925927 61.733333333333334)"/><path d="M960 688a8 8 0 0 1 8-8h164a8 8 0 0 1 8 8v124a8 8 0 0 1-8 8H968a8 8 0 0 1-8-8z" stroke="#3a414a" fill="#979ea8"/><path d="M978 680v140m144-140v140" stroke="#3a414a" fill="none"/><use xlink:href="#r" transform="matrix(1,0,0,1,987.5,685) translate(21.049999999999997 68.60000000000001)"/><use xlink:href="#s" transform="matrix(1,0,0,1,987.5,685) translate(52.05 68.60000000000001)"/><path d="M1305.9 888a8 8 0 0 1 8-8H1512a8 8 0 0 1 8 8v124a8 8 0 0 1-8 8h-198.1a8 8 0 0 1-8-8z" stroke="#3a414a" fill="#979ea8"/><use xlink:href="#t" transform="matrix(1,0,0,1,1317.8960612534581,892) translate(49.94814814814814 61.733333333333334)"/><path d="M700 1088a8 8 0 0 1 8-8h184a8 8 0 0 1 8 8v124a8 8 0 0 1-8 8H708a8 8 0 0 1-8-8z" stroke="#3a414a" fill="#979ea8"/><use xlink:href="#u" transform="matrix(1,0,0,1,712,1092) translate(16.003703703703692 61.733333333333334)"/><use xlink:href="#v" transform="matrix(1,0,0,1,712,1092) translate(88.5962962962963 61.733333333333334)"/><path d="M958.5 390H659" stroke="#3a414a" stroke-width="2" fill="none"/><path d="M959.5 390l.03 1h-1.06v-2h1.06z" stroke="#3a414a" stroke-width=".05" fill="#3a414a"/><path d="M643.74 390l14.26-4.63v9.26z" stroke="#3a414a" stroke-width="2" fill="#3a414a"/><path d="M451.65 390H222a12 12 0 0 0-12 12v99" stroke="#3a414a" stroke-width="2" fill="none"/><path d="M452.65 391h-1.03v-2h1.03z" stroke="#3a414a" stroke-width=".05" fill="#3a414a"/><path d="M210 516.26L205.37 502h9.26z" stroke="#3a414a" stroke-width="2" fill="#3a414a"/><path d="M210 661.5V738a12 12 0 0 0 12 12h212.14" stroke="#3a414a" stroke-width="2" fill="none"/><path d="M211 661.53h-2v-1.03h2z" stroke="#3a414a" stroke-width=".05" fill="#3a414a"/><path d="M449.4 750l-14.25 4.63v-9.26z" stroke="#3a414a" stroke-width="2" fill="#3a414a"/><path d="M634.65 750H941" stroke="#3a414a" stroke-width="2" fill="none"/><path d="M634.67 751h-1.02v-2h1.02z" stroke="#3a414a" stroke-width=".05" fill="#3a414a"/><path d="M956.26 750L942 754.63v-9.26z" stroke="#3a414a" stroke-width="2" fill="#3a414a"/><path d="M1141.5 750h259.45a12 12 0 0 1 12 12v99" stroke="#3a414a" stroke-width="2" fill="none"/><path d="M1141.53 751h-1.03v-2h1.03z" stroke="#3a414a" stroke-width=".05" fill="#3a414a"/><path d="M1412.95 876.26L1408.3 862h9.28z" stroke="#3a414a" stroke-width="2" fill="#3a414a"/><path d="M1412.95 1021.5V1138a12 12 0 0 1-12 12H919" stroke="#3a414a" stroke-width="2" fill="none"/><path d="M1413.95 1021.53h-2v-1.03h2z" stroke="#3a414a" stroke-width=".05" fill="#3a414a"/><path d="M903.74 1150l14.26-4.63v9.27z" stroke="#3a414a" stroke-width="2" fill="#3a414a"/><defs><path d="M30-248c87 1 191-15 191 75 0 78-77 80-158 76V0H30v-248zm33 125c57 0 124 11 124-50 0-59-68-47-124-48v98" id="w"/><path d="M100-194c62-1 85 37 85 99 1 63-27 99-86 99S16-35 15-95c0-66 28-99 85-99zM99-20c44 1 53-31 53-75 0-43-8-75-51-75s-53 32-53 75 10 74 51 75" id="x"/><path d="M206 0h-36l-40-164L89 0H53L-1-190h32L70-26l43-164h34l41 164 42-164h31" id="y"/><path d="M100-194c63 0 86 42 84 106H49c0 40 14 67 53 68 26 1 43-12 49-29l28 8c-11 28-37 45-77 45C44 4 14-33 15-96c1-61 26-98 85-98zm52 81c6-60-76-77-97-28-3 7-6 17-6 28h103" id="z"/><path d="M114-163C36-179 61-72 57 0H25l-1-190h30c1 12-1 29 2 39 6-27 23-49 58-41v29" id="A"/><path d="M16-82v-28h88v28H16" id="B"/><path d="M140-251c81 0 123 46 123 126C263-46 219 4 140 4 59 4 17-45 17-125s42-126 123-126zm0 227c63 0 89-41 89-101s-29-99-89-99c-61 0-89 39-89 99S79-25 140-24" id="C"/><path d="M117-194c89-4 53 116 60 194h-32v-121c0-31-8-49-39-48C34-167 62-67 57 0H25l-1-190h30c1 10-1 24 2 32 11-22 29-35 61-36" id="D"/><g id="a"><use transform="matrix(0.05185185185185186,0,0,0.05185185185185186,0,0)" xlink:href="#w"/><use transform="matrix(0.05185185185185186,0,0,0.05185185185185186,12.444444444444446,0)" xlink:href="#x"/><use transform="matrix(0.05185185185185186,0,0,0.05185185185185186,22.814814814814817,0)" xlink:href="#y"/><use transform="matrix(0.05185185185185186,0,0,0.05185185185185186,36.24444444444445,0)" xlink:href="#z"/><use transform="matrix(0.05185185185185186,0,0,0.05185185185185186,46.61481481481482,0)" xlink:href="#A"/><use transform="matrix(0.05185185185185186,0,0,0.05185185185185186,52.78518518518519,0)" xlink:href="#B"/><use transform="matrix(0.05185185185185186,0,0,0.05185185185185186,58.95555555555556,0)" xlink:href="#C"/><use transform="matrix(0.05185185185185186,0,0,0.05185185185185186,73.47407407407408,0)" xlink:href="#D"/></g><path d="M233-177c-1 41-23 64-60 70L243 0h-38l-65-103H63V0H30v-248c88 3 205-21 203 71zM63-129c60-2 137 13 137-47 0-61-80-42-137-45v92" id="E"/><path d="M135-143c-3-34-86-38-87 0 15 53 115 12 119 90S17 21 10-45l28-5c4 36 97 45 98 0-10-56-113-15-118-90-4-57 82-63 122-42 12 7 21 19 24 35" id="F"/><path d="M59-47c-2 24 18 29 38 22v24C64 9 27 4 27-40v-127H5v-23h24l9-43h21v43h35v23H59v120" id="G"/><g id="b"><use transform="matrix(0.05185185185185186,0,0,0.05185185185185186,0,0)" xlink:href="#E"/><use transform="matrix(0.05185185185185186,0,0,0.05185185185185186,13.42962962962963,0)" xlink:href="#z"/><use transform="matrix(0.05185185185185186,0,0,0.05185185185185186,23.800000000000004,0)" xlink:href="#F"/><use transform="matrix(0.05185185185185186,0,0,0.05185185185185186,33.13333333333334,0)" xlink:href="#z"/><use transform="matrix(0.05185185185185186,0,0,0.05185185185185186,43.503703703703714,0)" xlink:href="#G"/></g><path d="M182-130c37 4 62 22 62 59C244 23 116-4 24 0v-248c84 5 203-23 205 63 0 31-19 50-47 55zM76-148c40-3 101 13 101-30 0-44-60-28-101-31v61zm0 110c48-3 116 14 116-37 0-48-69-32-116-35v72" id="H"/><path d="M110-194c64 0 96 36 96 99 0 64-35 99-97 99-61 0-95-36-95-99 0-62 34-99 96-99zm-1 164c35 0 45-28 45-65 0-40-10-65-43-65-34 0-45 26-45 65 0 36 10 65 43 65" id="I"/><path d="M115-3C79 11 28 4 28-45v-112H4v-33h27l15-45h31v45h36v33H77v99c-1 23 16 31 38 25v30" id="J"/><g id="c"><use transform="matrix(0.11604938271604935,0,0,0.11604938271604935,0,0)" xlink:href="#H"/><use transform="matrix(0.11604938271604935,0,0,0.11604938271604935,30.056790123456782,0)" xlink:href="#I"/><use transform="matrix(0.11604938271604935,0,0,0.11604938271604935,55.47160493827159,0)" xlink:href="#I"/><use transform="matrix(0.11604938271604935,0,0,0.11604938271604935,80.8864197530864,0)" xlink:href="#J"/></g><path d="M76-208v77h127v40H76V0H24v-248h183v40H76" id="K"/><path d="M25 0v-261h50V0H25" id="L"/><path d="M231 0h-52l-39-155L100 0H48L-1-190h46L77-45c9-52 24-97 36-145h53l37 145 32-145h46" id="M"/><g id="d"><use transform="matrix(0.11604938271604935,0,0,0.11604938271604935,0,0)" xlink:href="#K"/><use transform="matrix(0.11604938271604935,0,0,0.11604938271604935,25.414814814814807,0)" xlink:href="#L"/><use transform="matrix(0.11604938271604935,0,0,0.11604938271604935,37.01975308641974,0)" xlink:href="#I"/><use transform="matrix(0.11604938271604935,0,0,0.11604938271604935,62.43456790123454,0)" xlink:href="#M"/></g><path fill="#4c535d" d="M185-189c-5-48-123-54-124 2 14 75 158 14 163 119 3 78-121 87-175 55-17-10-28-26-33-46l33-7c5 56 141 63 141-1 0-78-155-14-162-118-5-82 145-84 179-34 5 7 8 16 11 25" id="N"/><path fill="#4c535d" d="M106-169C34-169 62-67 57 0H25v-261h32l-1 103c12-21 28-36 61-36 89 0 53 116 60 194h-32v-121c2-32-8-49-39-48" id="O"/><path fill="#4c535d" d="M24-231v-30h32v30H24zM24 0v-190h32V0H24" id="P"/><path fill="#4c535d" d="M85-194c31 0 48 13 60 33l-1-100h32l1 261h-30c-2-10 0-23-3-31C134-8 116 4 85 4 32 4 16-35 15-94c0-66 23-100 70-100zm9 24c-40 0-46 34-46 75 0 40 6 74 45 74 42 0 51-32 51-76 0-42-9-74-50-73" id="Q"/><path fill="#4c535d" d="M100-194c63 0 86 42 84 106H49c0 40 14 67 53 68 26 1 43-12 49-29l28 8c-11 28-37 45-77 45C44 4 14-33 15-96c1-61 26-98 85-98zm52 81c6-60-76-77-97-28-3 7-6 17-6 28h103" id="R"/><path fill="#4c535d" d="M135-143c-3-34-86-38-87 0 15 53 115 12 119 90S17 21 10-45l28-5c4 36 97 45 98 0-10-56-113-15-118-90-4-57 82-63 122-42 12 7 21 19 24 35" id="S"/><path fill="#4c535d" d="M206 0h-36l-40-164L89 0H53L-1-190h32L70-26l43-164h34l41 164 42-164h31" id="T"/><path fill="#4c535d" d="M141-36C126-15 110 5 73 4 37 3 15-17 15-53c-1-64 63-63 125-63 3-35-9-54-41-54-24 1-41 7-42 31l-33-3c5-37 33-52 76-52 45 0 72 20 72 64v82c-1 20 7 32 28 27v20c-31 9-61-2-59-35zM48-53c0 20 12 33 32 33 41-3 63-29 60-74-43 2-92-5-92 41" id="U"/><path fill="#4c535d" d="M114-163C36-179 61-72 57 0H25l-1-190h30c1 12-1 29 2 39 6-27 23-49 58-41v29" id="V"/><path fill="#4c535d" d="M117-194c89-4 53 116 60 194h-32v-121c0-31-8-49-39-48C34-167 62-67 57 0H25l-1-190h30c1 10-1 24 2 32 11-22 29-35 61-36" id="W"/><g id="e"><use transform="matrix(0.04248971193415638,0,0,0.04248971193415638,0,0)" xlink:href="#N"/><use transform="matrix(0.04248971193415638,0,0,0.04248971193415638,10.19753086419753,0)" xlink:href="#O"/><use transform="matrix(0.04248971193415638,0,0,0.04248971193415638,18.695473251028805,0)" xlink:href="#P"/><use transform="matrix(0.04248971193415638,0,0,0.04248971193415638,22.05216049382716,0)" xlink:href="#Q"/><use transform="matrix(0.04248971193415638,0,0,0.04248971193415638,30.550102880658436,0)" xlink:href="#Q"/><use transform="matrix(0.04248971193415638,0,0,0.04248971193415638,39.04804526748971,0)" xlink:href="#R"/><use transform="matrix(0.04248971193415638,0,0,0.04248971193415638,47.54598765432099,0)" xlink:href="#S"/><use transform="matrix(0.04248971193415638,0,0,0.04248971193415638,55.194135802469134,0)" xlink:href="#O"/><use transform="matrix(0.04248971193415638,0,0,0.04248971193415638,63.69207818930041,0)" xlink:href="#T"/><use transform="matrix(0.04248971193415638,0,0,0.04248971193415638,74.69691358024691,0)" xlink:href="#U"/><use transform="matrix(0.04248971193415638,0,0,0.04248971193415638,83.19485596707818,0)" xlink:href="#V"/><use transform="matrix(0.04248971193415638,0,0,0.04248971193415638,88.25113168724279,0)" xlink:href="#U"/><use transform="matrix(0.04248971193415638,0,0,0.04248971193415638,96.74907407407404,0)" xlink:href="#W"/></g><path fill="#4c535d" d="M24 0v-261h32V0H24" id="X"/><path fill="#4c535d" d="M108 0H70L1-190h34L89-25l56-165h34" id="Y"/><path fill="#4c535d" d="M84 4C-5 8 30-112 23-190h32v120c0 31 7 50 39 49 72-2 45-101 50-169h31l1 190h-30c-1-10 1-25-2-33-11 22-28 36-60 37" id="Z"/><g id="f"><use transform="matrix(0.04248971193415638,0,0,0.04248971193415638,0,0)" xlink:href="#N"/><use transform="matrix(0.04248971193415638,0,0,0.04248971193415638,10.19753086419753,0)" xlink:href="#R"/><use transform="matrix(0.04248971193415638,0,0,0.04248971193415638,18.695473251028805,0)" xlink:href="#X"/><use transform="matrix(0.04248971193415638,0,0,0.04248971193415638,22.05216049382716,0)" xlink:href="#Y"/><use transform="matrix(0.04248971193415638,0,0,0.04248971193415638,29.700308641975308,0)" xlink:href="#U"/><use transform="matrix(0.04248971193415638,0,0,0.04248971193415638,38.19825102880658,0)" xlink:href="#V"/><use transform="matrix(0.04248971193415638,0,0,0.04248971193415638,43.25452674897119,0)" xlink:href="#U"/><use transform="matrix(0.04248971193415638,0,0,0.04248971193415638,51.752469135802464,0)" xlink:href="#S"/><use transform="matrix(0.04248971193415638,0,0,0.04248971193415638,59.4006172839506,0)" xlink:href="#Z"/></g><path fill="#a9afb8" d="M32 76v-337h29V76H32" id="aa"/><use transform="matrix(0.04248971193415638,0,0,0.04248971193415638,0,0)" xlink:href="#aa" id="g"/><path fill="#4c535d" d="M240 0l2-218c-23 76-54 145-80 218h-23L58-218 59 0H30v-248h44l77 211c21-75 51-140 76-211h43V0h-30" id="ab"/><path fill="#4c535d" d="M179-190L93 31C79 59 56 82 12 73V49c39 6 53-20 64-50L1-190h34L92-34l54-156h33" id="ac"/><g id="h"><use transform="matrix(0.04248971193415638,0,0,0.04248971193415638,0,0)" xlink:href="#ab"/><use transform="matrix(0.04248971193415638,0,0,0.04248971193415638,12.704423868312757,0)" xlink:href="#U"/><use transform="matrix(0.04248971193415638,0,0,0.04248971193415638,21.20236625514403,0)" xlink:href="#ac"/></g><path fill="#4c535d" d="M101-251c82-7 93 87 43 132L82-64C71-53 59-42 53-27h129V0H18c2-99 128-94 128-182 0-28-16-43-45-43s-46 15-49 41l-32-3c6-41 34-60 81-64" id="ad"/><path fill="#4c535d" d="M126-127c33 6 58 20 58 59 0 88-139 92-164 29-3-8-5-16-6-25l32-3c6 27 21 44 54 44 32 0 52-15 52-46 0-38-36-46-79-43v-28c39 1 72-4 72-42 0-27-17-43-46-43-28 0-47 15-49 41l-32-3c6-42 35-63 81-64 48-1 79 21 79 65 0 36-21 52-52 59" id="ae"/><path fill="#4c535d" d="M68-38c1 34 0 65-14 84H32c9-13 17-26 17-46H33v-38h35" id="af"/><g id="i"><use transform="matrix(0.04248971193415638,0,0,0.04248971193415638,0,0)" xlink:href="#ad"/><use transform="matrix(0.04248971193415638,0,0,0.04248971193415638,8.497942386831275,0)" xlink:href="#ae"/><use transform="matrix(0.04248971193415638,0,0,0.04248971193415638,16.99588477366255,0)" xlink:href="#af"/></g><path fill="#4c535d" d="M101-251c68 0 85 55 85 127S166 4 100 4C33 4 14-52 14-124c0-73 17-127 87-127zm-1 229c47 0 54-49 54-102s-4-102-53-102c-51 0-55 48-55 102 0 53 5 102 54 102" id="ag"/><g id="j"><use transform="matrix(0.04248971193415638,0,0,0.04248971193415638,0,0)" xlink:href="#ad"/><use transform="matrix(0.04248971193415638,0,0,0.04248971193415638,8.497942386831275,0)" xlink:href="#ag"/><use transform="matrix(0.04248971193415638,0,0,0.04248971193415638,16.99588477366255,0)" xlink:href="#ad"/><use transform="matrix(0.04248971193415638,0,0,0.04248971193415638,25.493827160493822,0)" xlink:href="#ae"/></g><g id="k"><use transform="matrix(0.05185185185185186,0,0,0.05185185185185186,0,0)" xlink:href="#E"/><use transform="matrix(0.05185185185185186,0,0,0.05185185185185186,13.42962962962963,0)" xlink:href="#z"/><use transform="matrix(0.05185185185185186,0,0,0.05185185185185186,23.800000000000004,0)" xlink:href="#F"/><use transform="matrix(0.05185185185185186,0,0,0.05185185185185186,33.13333333333334,0)" xlink:href="#z"/><use transform="matrix(0.05185185185185186,0,0,0.05185185185185186,43.503703703703714,0)" xlink:href="#G"/></g><path d="M137 0h-34L2-248h35l83 218 83-218h36" id="ah"/><path d="M96-169c-40 0-48 33-48 73s9 75 48 75c24 0 41-14 43-38l32 2c-6 37-31 61-74 61-59 0-76-41-82-99-10-93 101-131 147-64 4 7 5 14 7 22l-32 3c-4-21-16-35-41-35" id="ai"/><g id="l"><use transform="matrix(0.05185185185185186,0,0,0.05185185185185186,0,0)" xlink:href="#ah"/><use transform="matrix(0.05185185185185186,0,0,0.05185185185185186,11.407407407407408,0)" xlink:href="#z"/><use transform="matrix(0.05185185185185186,0,0,0.05185185185185186,21.77777777777778,0)" xlink:href="#ai"/><use transform="matrix(0.05185185185185186,0,0,0.05185185185185186,31.111111111111114,0)" xlink:href="#G"/><use transform="matrix(0.05185185185185186,0,0,0.05185185185185186,36.2962962962963,0)" xlink:href="#x"/><use transform="matrix(0.05185185185185186,0,0,0.05185185185185186,46.66666666666667,0)" xlink:href="#A"/></g><path d="M153-248C145-148 188 4 80 4 36 3 13-21 6-62l32-5c4 25 16 42 43 43 27 0 39-20 39-49v-147H72v-28h81" id="aj"/><path d="M84 4C-5 8 30-112 23-190h32v120c0 31 7 50 39 49 72-2 45-101 50-169h31l1 190h-30c-1-10 1-25-2-33-11 22-28 36-60 37" id="ak"/><path d="M210-169c-67 3-38 105-44 169h-31v-121c0-29-5-50-35-48C34-165 62-65 56 0H25l-1-190h30c1 10-1 24 2 32 10-44 99-50 107 0 11-21 27-35 58-36 85-2 47 119 55 194h-31v-121c0-29-5-49-35-48" id="al"/><path d="M115-194c55 1 70 41 70 98S169 2 115 4C84 4 66-9 55-30l1 105H24l-1-265h31l2 30c10-21 28-34 59-34zm-8 174c40 0 45-34 45-75s-6-73-45-74c-42 0-51 32-51 76 0 43 10 73 51 73" id="am"/><g id="m"><use transform="matrix(0.05185185185185186,0,0,0.05185185185185186,0,0)" xlink:href="#aj"/><use transform="matrix(0.05185185185185186,0,0,0.05185185185185186,9.333333333333334,0)" xlink:href="#ak"/><use transform="matrix(0.05185185185185186,0,0,0.05185185185185186,19.703703703703706,0)" xlink:href="#al"/><use transform="matrix(0.05185185185185186,0,0,0.05185185185185186,35.20740740740741,0)" xlink:href="#am"/></g><path d="M160-131c35 5 61 23 61 61C221 17 115-2 30 0v-248c76 3 177-17 177 60 0 33-19 50-47 57zm-97-11c50-1 110 9 110-42 0-47-63-36-110-37v79zm0 115c55-2 124 14 124-45 0-56-70-42-124-44v89" id="an"/><path d="M24 0v-261h32V0H24" id="ao"/><path d="M141-36C126-15 110 5 73 4 37 3 15-17 15-53c-1-64 63-63 125-63 3-35-9-54-41-54-24 1-41 7-42 31l-33-3c5-37 33-52 76-52 45 0 72 20 72 64v82c-1 20 7 32 28 27v20c-31 9-61-2-59-35zM48-53c0 20 12 33 32 33 41-3 63-29 60-74-43 2-92-5-92 41" id="ap"/><path d="M85-194c31 0 48 13 60 33l-1-100h32l1 261h-30c-2-10 0-23-3-31C134-8 116 4 85 4 32 4 16-35 15-94c0-66 23-100 70-100zm9 24c-40 0-46 34-46 75 0 40 6 74 45 74 42 0 51-32 51-76 0-42-9-74-50-73" id="aq"/><g id="n"><use transform="matrix(0.05185185185185186,0,0,0.05185185185185186,0,0)" xlink:href="#an"/><use transform="matrix(0.05185185185185186,0,0,0.05185185185185186,12.444444444444446,0)" xlink:href="#x"/><use transform="matrix(0.05185185185185186,0,0,0.05185185185185186,22.814814814814817,0)" xlink:href="#x"/><use transform="matrix(0.05185185185185186,0,0,0.05185185185185186,33.18518518518519,0)" xlink:href="#G"/><use transform="matrix(0.05185185185185186,0,0,0.05185185185185186,38.370370370370374,0)" xlink:href="#ao"/><use transform="matrix(0.05185185185185186,0,0,0.05185185185185186,42.46666666666667,0)" xlink:href="#x"/><use transform="matrix(0.05185185185185186,0,0,0.05185185185185186,52.83703703703704,0)" xlink:href="#ap"/><use transform="matrix(0.05185185185185186,0,0,0.05185185185185186,63.207407407407416,0)" xlink:href="#aq"/><use transform="matrix(0.05185185185185186,0,0,0.05185185185185186,73.57777777777778,0)" xlink:href="#z"/><use transform="matrix(0.05185185185185186,0,0,0.05185185185185186,83.94814814814815,0)" xlink:href="#A"/></g><path d="M197 0v-115H63V0H30v-248h33v105h134v-105h34V0h-34" id="ar"/><g id="o"><use transform="matrix(0.05185185185185186,0,0,0.05185185185185186,0,0)" xlink:href="#ar"/><use transform="matrix(0.05185185185185186,0,0,0.05185185185185186,13.42962962962963,0)" xlink:href="#ap"/><use transform="matrix(0.05185185185185186,0,0,0.05185185185185186,23.800000000000004,0)" xlink:href="#A"/><use transform="matrix(0.05185185185185186,0,0,0.05185185185185186,29.970370370370375,0)" xlink:href="#aq"/><use transform="matrix(0.05185185185185186,0,0,0.05185185185185186,40.34074074074075,0)" xlink:href="#y"/><use transform="matrix(0.05185185185185186,0,0,0.05185185185185186,53.77037037037038,0)" xlink:href="#ap"/><use transform="matrix(0.05185185185185186,0,0,0.05185185185185186,64.14074074074075,0)" xlink:href="#A"/><use transform="matrix(0.05185185185185186,0,0,0.05185185185185186,70.31111111111113,0)" xlink:href="#z"/></g><path d="M33 0v-248h34V0H33" id="as"/><path d="M24-231v-30h32v30H24zM24 0v-190h32V0H24" id="at"/><g id="p"><use transform="matrix(0.05185185185185186,0,0,0.05185185185185186,0,0)" xlink:href="#as"/><use transform="matrix(0.05185185185185186,0,0,0.05185185185185186,5.185185185185186,0)" xlink:href="#D"/><use transform="matrix(0.05185185185185186,0,0,0.05185185185185186,15.555555555555557,0)" xlink:href="#at"/><use transform="matrix(0.05185185185185186,0,0,0.05185185185185186,19.651851851851852,0)" xlink:href="#G"/></g><path d="M185-189c-5-48-123-54-124 2 14 75 158 14 163 119 3 78-121 87-175 55-17-10-28-26-33-46l33-7c5 56 141 63 141-1 0-78-155-14-162-118-5-82 145-84 179-34 5 7 8 16 11 25" id="au"/><path d="M179-190L93 31C79 59 56 82 12 73V49c39 6 53-20 64-50L1-190h34L92-34l54-156h33" id="av"/><g id="q"><use transform="matrix(0.05185185185185186,0,0,0.05185185185185186,0,0)" xlink:href="#au"/><use transform="matrix(0.05185185185185186,0,0,0.05185185185185186,12.444444444444446,0)" xlink:href="#av"/><use transform="matrix(0.05185185185185186,0,0,0.05185185185185186,21.77777777777778,0)" xlink:href="#F"/><use transform="matrix(0.05185185185185186,0,0,0.05185185185185186,31.111111111111114,0)" xlink:href="#G"/><use transform="matrix(0.05185185185185186,0,0,0.05185185185185186,36.2962962962963,0)" xlink:href="#z"/><use transform="matrix(0.05185185185185186,0,0,0.05185185185185186,46.66666666666667,0)" xlink:href="#al"/></g><path fill="#3a414a" d="M140-251c81 0 123 46 123 126C263-46 219 4 140 4 59 4 17-45 17-125s42-126 123-126zm0 227c63 0 89-41 89-101s-29-99-89-99c-61 0-89 39-89 99S79-25 140-24" id="aw"/><path fill="#3a414a" d="M185-189c-5-48-123-54-124 2 14 75 158 14 163 119 3 78-121 87-175 55-17-10-28-26-33-46l33-7c5 56 141 63 141-1 0-78-155-14-162-118-5-82 145-84 179-34 5 7 8 16 11 25" id="ax"/><g id="r"><use transform="matrix(0.05,0,0,0.05,0,0)" xlink:href="#aw"/><use transform="matrix(0.05,0,0,0.05,14,0)" xlink:href="#ax"/></g><path fill="#3a414a" d="M194 0L95-120 63-95V0H30v-248h33v124l119-124h40L117-140 236 0h-42" id="ay"/><path fill="#3a414a" d="M100-194c63 0 86 42 84 106H49c0 40 14 67 53 68 26 1 43-12 49-29l28 8c-11 28-37 45-77 45C44 4 14-33 15-96c1-61 26-98 85-98zm52 81c6-60-76-77-97-28-3 7-6 17-6 28h103" id="az"/><path fill="#3a414a" d="M114-163C36-179 61-72 57 0H25l-1-190h30c1 12-1 29 2 39 6-27 23-49 58-41v29" id="aA"/><path fill="#3a414a" d="M117-194c89-4 53 116 60 194h-32v-121c0-31-8-49-39-48C34-167 62-67 57 0H25l-1-190h30c1 10-1 24 2 32 11-22 29-35 61-36" id="aB"/><path fill="#3a414a" d="M24 0v-261h32V0H24" id="aC"/><g id="s"><use transform="matrix(0.05,0,0,0.05,0,0)" xlink:href="#ay"/><use transform="matrix(0.05,0,0,0.05,12,0)" xlink:href="#az"/><use transform="matrix(0.05,0,0,0.05,22,0)" xlink:href="#aA"/><use transform="matrix(0.05,0,0,0.05,27.950000000000003,0)" xlink:href="#aB"/><use transform="matrix(0.05,0,0,0.05,37.95,0)" xlink:href="#az"/><use transform="matrix(0.05,0,0,0.05,47.95,0)" xlink:href="#aC"/></g><path d="M205 0l-28-72H64L36 0H1l101-248h38L239 0h-34zm-38-99l-47-123c-12 45-31 82-46 123h93" id="aD"/><g id="t"><use transform="matrix(0.05185185185185186,0,0,0.05185185185185186,0,0)" xlink:href="#aD"/><use transform="matrix(0.05185185185185186,0,0,0.05185185185185186,12.444444444444446,0)" xlink:href="#am"/><use transform="matrix(0.05185185185185186,0,0,0.05185185185185186,22.814814814814817,0)" xlink:href="#am"/><use transform="matrix(0.05185185185185186,0,0,0.05185185185185186,33.18518518518519,0)" xlink:href="#ao"/><use transform="matrix(0.05185185185185186,0,0,0.05185185185185186,37.281481481481485,0)" xlink:href="#at"/><use transform="matrix(0.05185185185185186,0,0,0.05185185185185186,41.37777777777778,0)" xlink:href="#ai"/><use transform="matrix(0.05185185185185186,0,0,0.05185185185185186,50.711111111111116,0)" xlink:href="#ap"/><use transform="matrix(0.05185185185185186,0,0,0.05185185185185186,61.08148148148149,0)" xlink:href="#G"/><use transform="matrix(0.05185185185185186,0,0,0.05185185185185186,66.26666666666668,0)" xlink:href="#at"/><use transform="matrix(0.05185185185185186,0,0,0.05185185185185186,70.36296296296298,0)" xlink:href="#x"/><use transform="matrix(0.05185185185185186,0,0,0.05185185185185186,80.73333333333335,0)" xlink:href="#D"/></g><path d="M30 0v-248h187v28H63v79h144v27H63v87h162V0H30" id="aE"/><path d="M141 0L90-78 38 0H4l68-98-65-92h35l48 74 47-74h35l-64 92 68 98h-35" id="aF"/><g id="u"><use transform="matrix(0.05185185185185186,0,0,0.05185185185185186,0,0)" xlink:href="#aE"/><use transform="matrix(0.05185185185185186,0,0,0.05185185185185186,12.444444444444446,0)" xlink:href="#aF"/><use transform="matrix(0.05185185185185186,0,0,0.05185185185185186,21.77777777777778,0)" xlink:href="#z"/><use transform="matrix(0.05185185185185186,0,0,0.05185185185185186,32.14814814814815,0)" xlink:href="#ai"/><use transform="matrix(0.05185185185185186,0,0,0.05185185185185186,41.48148148148149,0)" xlink:href="#ak"/><use transform="matrix(0.05185185185185186,0,0,0.05185185185185186,51.85185185185186,0)" xlink:href="#G"/><use transform="matrix(0.05185185185185186,0,0,0.05185185185185186,57.037037037037045,0)" xlink:href="#z"/></g><path d="M177-190C167-65 218 103 67 71c-23-6-38-20-44-43l32-5c15 47 100 32 89-28v-30C133-14 115 1 83 1 29 1 15-40 15-95c0-56 16-97 71-98 29-1 48 16 59 35 1-10 0-23 2-32h30zM94-22c36 0 50-32 50-73 0-42-14-75-50-75-39 0-46 34-46 75s6 73 46 73" id="aG"/><g id="v"><use transform="matrix(0.05185185185185186,0,0,0.05185185185185186,0,0)" xlink:href="#w"/><use transform="matrix(0.05185185185185186,0,0,0.05185185185185186,12.444444444444446,0)" xlink:href="#A"/><use transform="matrix(0.05185185185185186,0,0,0.05185185185185186,18.614814814814817,0)" xlink:href="#x"/><use transform="matrix(0.05185185185185186,0,0,0.05185185185185186,28.985185185185188,0)" xlink:href="#aG"/><use transform="matrix(0.05185185185185186,0,0,0.05185185185185186,39.35555555555556,0)" xlink:href="#A"/><use transform="matrix(0.05185185185185186,0,0,0.05185185185185186,45.52592592592593,0)" xlink:href="#ap"/><use transform="matrix(0.05185185185185186,0,0,0.05185185185185186,55.8962962962963,0)" xlink:href="#al"/></g></defs></g></svg>